<svg xmlns="http://www.w3.org/2000/svg" width="1200" height="520" viewBox="0 0 1200 520" role="img" aria-label="FIFA World Cup 2026 Predictor. A Gradient Boosting match model, simulated across the entire tournament with Monte Carlo, plus Golden Boot, Glove and Ball predictions.">
<title>FIFA World Cup 2026 Predictor. A Gradient Boosting match model, simulated across the entire tournament with Monte Carlo, plus Golden Boot, Glove and Ball predictions.</title>
<defs></defs>
<style>text { font-family: -apple-system, BlinkMacSystemFont, 'SF Pro Display', 'SF Pro Text', 'Inter', 'Segoe UI Variable Display', 'Segoe UI', 'Helvetica Neue', Helvetica, Arial, sans-serif; }</style>
<rect width="1200" height="520" rx="36" fill="#1C1C1E"/><defs><radialGradient id="field" cx="0.5" cy="0.5" r="0.5"><stop offset="0" stop-color="#30D158" stop-opacity="0.9"/><stop offset="0.6" stop-color="#40C8E0" stop-opacity="0.35"/><stop offset="1" stop-color="#40C8E0" stop-opacity="0"/></radialGradient><mask id="dots"><rect width="1200" height="520" fill="#000"/><circle cx="690" cy="44" r="7.5" fill="#fff"/><circle cx="717" cy="44" r="7.5" fill="#fff"/><circle cx="744" cy="44" r="7.5" fill="#fff"/><circle cx="771" cy="44" r="7.5" fill="#fff"/><circle cx="798" cy="44" r="7.5" fill="#fff"/><circle cx="825" cy="44" r="7.5" fill="#fff"/><circle cx="852" cy="44" r="7.5" fill="#fff"/><circle cx="879" cy="44" r="7.5" fill="#fff"/><circle cx="906" cy="44" r="7.5" fill="#fff"/><circle cx="933" cy="44" r="7.5" fill="#fff"/><circle cx="960" cy="44" r="7.5" fill="#fff"/><circle cx="987" cy="44" r="7.5" fill="#fff"/><circle cx="1014" cy="44" r="7.5" fill="#fff"/><circle cx="1041" cy="44" r="7.5" fill="#fff"/><circle cx="1068" cy="44" r="7.5" fill="#fff"/><circle cx="1095" cy="44" r="7.5" fill="#fff"/><circle cx="1122" cy="44" r="7.5" fill="#fff"/><circle cx="690" cy="71" r="7.5" fill="#fff"/><circle cx="717" cy="71" r="7.5" fill="#fff"/><circle cx="744" cy="71" r="7.5" fill="#fff"/><circle cx="771" cy="71" r="7.5" fill="#fff"/><circle cx="798" cy="71" r="7.5" fill="#fff"/><circle cx="825" cy="71" r="7.5" fill="#fff"/><circle cx="852" cy="71" r="7.5" fill="#fff"/><circle cx="879" cy="71" r="7.5" fill="#fff"/><circle cx="906" cy="71" r="7.5" fill="#fff"/><circle cx="933" cy="71" r="7.5" fill="#fff"/><circle cx="960" cy="71" r="7.5" fill="#fff"/><circle cx="987" cy="71" r="7.5" fill="#fff"/><circle cx="1014" cy="71" r="7.5" fill="#fff"/><circle cx="1041" cy="71" r="7.5" fill="#fff"/><circle cx="1068" cy="71" r="7.5" fill="#fff"/><circle cx="1095" cy="71" r="7.5" fill="#fff"/><circle cx="1122" cy="71" r="7.5" fill="#fff"/><circle cx="690" cy="98" r="7.5" fill="#fff"/><circle cx="717" cy="98" r="7.5" fill="#fff"/><circle cx="744" cy="98" r="7.5" fill="#fff"/><circle cx="771" cy="98" r="7.5" fill="#fff"/><circle cx="798" cy="98" r="7.5" fill="#fff"/><circle cx="825" cy="98" r="7.5" fill="#fff"/><circle cx="852" cy="98" r="7.5" fill="#fff"/><circle cx="879" cy="98" r="7.5" fill="#fff"/><circle cx="906" cy="98" r="7.5" fill="#fff"/><circle cx="933" cy="98" r="7.5" fill="#fff"/><circle cx="960" cy="98" r="7.5" fill="#fff"/><circle cx="987" cy="98" r="7.5" fill="#fff"/><circle cx="1014" cy="98" r="7.5" fill="#fff"/><circle cx="1041" cy="98" r="7.5" fill="#fff"/><circle cx="1068" cy="98" r="7.5" fill="#fff"/><circle cx="1095" cy="98" r="7.5" fill="#fff"/><circle cx="1122" cy="98" r="7.5" fill="#fff"/><circle cx="690" cy="125" r="7.5" fill="#fff"/><circle cx="717" cy="125" r="7.5" fill="#fff"/><circle cx="744" cy="125" r="7.5" fill="#fff"/><circle cx="771" cy="125" r="7.5" fill="#fff"/><circle cx="798" cy="125" r="7.5" fill="#fff"/><circle cx="825" cy="125" r="7.5" fill="#fff"/><circle cx="852" cy="125" r="7.5" fill="#fff"/><circle cx="879" cy="125" r="7.5" fill="#fff"/><circle cx="906" cy="125" r="7.5" fill="#fff"/><circle cx="933" cy="125" r="7.5" fill="#fff"/><circle cx="960" cy="125" r="7.5" fill="#fff"/><circle cx="987" cy="125" r="7.5" fill="#fff"/><circle cx="1014" cy="125" r="7.5" fill="#fff"/><circle cx="1041" cy="125" r="7.5" fill="#fff"/><circle cx="1068" cy="125" r="7.5" fill="#fff"/><circle cx="1095" cy="125" r="7.5" fill="#fff"/><circle cx="1122" cy="125" r="7.5" fill="#fff"/><circle cx="690" cy="152" r="7.5" fill="#fff"/><circle cx="717" cy="152" r="7.5" fill="#fff"/><circle cx="744" cy="152" r="7.5" fill="#fff"/><circle cx="771" cy="152" r="7.5" fill="#fff"/><circle cx="798" cy="152" r="7.5" fill="#fff"/><circle cx="825" cy="152" r="7.5" fill="#fff"/><circle cx="852" cy="152" r="7.5" fill="#fff"/><circle cx="879" cy="152" r="7.5" fill="#fff"/><circle cx="906" cy="152" r="7.5" fill="#fff"/><circle cx="933" cy="152" r="7.5" fill="#fff"/><circle cx="960" cy="152" r="7.5" fill="#fff"/><circle cx="987" cy="152" r="7.5" fill="#fff"/><circle cx="1014" cy="152" r="7.5" fill="#fff"/><circle cx="1041" cy="152" r="7.5" fill="#fff"/><circle cx="1068" cy="152" r="7.5" fill="#fff"/><circle cx="1095" cy="152" r="7.5" fill="#fff"/><circle cx="1122" cy="152" r="7.5" fill="#fff"/><circle cx="690" cy="179" r="7.5" fill="#fff"/><circle cx="717" cy="179" r="7.5" fill="#fff"/><circle cx="744" cy="179" r="7.5" fill="#fff"/><circle cx="771" cy="179" r="7.5" fill="#fff"/><circle cx="798" cy="179" r="7.5" fill="#fff"/><circle cx="825" cy="179" r="7.5" fill="#fff"/><circle cx="852" cy="179" r="7.5" fill="#fff"/><circle cx="879" cy="179" r="7.5" fill="#fff"/><circle cx="906" cy="179" r="7.5" fill="#fff"/><circle cx="933" cy="179" r="7.5" fill="#fff"/><circle cx="960" cy="179" r="7.5" fill="#fff"/><circle cx="987" cy="179" r="7.5" fill="#fff"/><circle cx="1014" cy="179" r="7.5" fill="#fff"/><circle cx="1041" cy="179" r="7.5" fill="#fff"/><circle cx="1068" cy="179" r="7.5" fill="#fff"/><circle cx="1095" cy="179" r="7.5" fill="#fff"/><circle cx="1122" cy="179" r="7.5" fill="#fff"/><circle cx="690" cy="206" r="7.5" fill="#fff"/><circle cx="717" cy="206" r="7.5" fill="#fff"/><circle cx="744" cy="206" r="7.5" fill="#fff"/><circle cx="771" cy="206" r="7.5" fill="#fff"/><circle cx="798" cy="206" r="7.5" fill="#fff"/><circle cx="825" cy="206" r="7.5" fill="#fff"/><circle cx="852" cy="206" r="7.5" fill="#fff"/><circle cx="879" cy="206" r="7.5" fill="#fff"/><circle cx="906" cy="206" r="7.5" fill="#fff"/><circle cx="933" cy="206" r="7.5" fill="#fff"/><circle cx="960" cy="206" r="7.5" fill="#fff"/><circle cx="987" cy="206" r="7.5" fill="#fff"/><circle cx="1014" cy="206" r="7.5" fill="#fff"/><circle cx="1041" cy="206" r="7.5" fill="#fff"/><circle cx="1068" cy="206" r="7.5" fill="#fff"/><circle cx="1095" cy="206" r="7.5" fill="#fff"/><circle cx="1122" cy="206" r="7.5" fill="#fff"/><circle cx="690" cy="233" r="7.5" fill="#fff"/><circle cx="717" cy="233" r="7.5" fill="#fff"/><circle cx="744" cy="233" r="7.5" fill="#fff"/><circle cx="771" cy="233" r="7.5" fill="#fff"/><circle cx="798" cy="233" r="7.5" fill="#fff"/><circle cx="825" cy="233" r="7.5" fill="#fff"/><circle cx="852" cy="233" r="7.5" fill="#fff"/><circle cx="879" cy="233" r="7.5" fill="#fff"/><circle cx="906" cy="233" r="7.5" fill="#fff"/><circle cx="933" cy="233" r="7.5" fill="#fff"/><circle cx="960" cy="233" r="7.5" fill="#fff"/><circle cx="987" cy="233" r="7.5" fill="#fff"/><circle cx="1014" cy="233" r="7.5" fill="#fff"/><circle cx="1041" cy="233" r="7.5" fill="#fff"/><circle cx="1068" cy="233" r="7.5" fill="#fff"/><circle cx="1095" cy="233" r="7.5" fill="#fff"/><circle cx="1122" cy="233" r="7.5" fill="#fff"/><circle cx="690" cy="260" r="7.5" fill="#fff"/><circle cx="717" cy="260" r="7.5" fill="#fff"/><circle cx="744" cy="260" r="7.5" fill="#fff"/><circle cx="771" cy="260" r="7.5" fill="#fff"/><circle cx="798" cy="260" r="7.5" fill="#fff"/><circle cx="825" cy="260" r="7.5" fill="#fff"/><circle cx="852" cy="260" r="7.5" fill="#fff"/><circle cx="879" cy="260" r="7.5" fill="#fff"/><circle cx="906" cy="260" r="7.5" fill="#fff"/><circle cx="933" cy="260" r="7.5" fill="#fff"/><circle cx="960" cy="260" r="7.5" fill="#fff"/><circle cx="987" cy="260" r="7.5" fill="#fff"/><circle cx="1014" cy="260" r="7.5" fill="#fff"/><circle cx="1041" cy="260" r="7.5" fill="#fff"/><circle cx="1068" cy="260" r="7.5" fill="#fff"/><circle cx="1095" cy="260" r="7.5" fill="#fff"/><circle cx="1122" cy="260" r="7.5" fill="#fff"/><circle cx="690" cy="287" r="7.5" fill="#fff"/><circle cx="717" cy="287" r="7.5" fill="#fff"/><circle cx="744" cy="287" r="7.5" fill="#fff"/><circle cx="771" cy="287" r="7.5" fill="#fff"/><circle cx="798" cy="287" r="7.5" fill="#fff"/><circle cx="825" cy="287" r="7.5" fill="#fff"/><circle cx="852" cy="287" r="7.5" fill="#fff"/><circle cx="879" cy="287" r="7.5" fill="#fff"/><circle cx="906" cy="287" r="7.5" fill="#fff"/><circle cx="933" cy="287" r="7.5" fill="#fff"/><circle cx="960" cy="287" r="7.5" fill="#fff"/><circle cx="987" cy="287" r="7.5" fill="#fff"/><circle cx="1014" cy="287" r="7.5" fill="#fff"/><circle cx="1041" cy="287" r="7.5" fill="#fff"/><circle cx="1068" cy="287" r="7.5" fill="#fff"/><circle cx="1095" cy="287" r="7.5" fill="#fff"/><circle cx="1122" cy="287" r="7.5" fill="#fff"/><circle cx="690" cy="314" r="7.5" fill="#fff"/><circle cx="717" cy="314" r="7.5" fill="#fff"/><circle cx="744" cy="314" r="7.5" fill="#fff"/><circle cx="771" cy="314" r="7.5" fill="#fff"/><circle cx="798" cy="314" r="7.5" fill="#fff"/><circle cx="825" cy="314" r="7.5" fill="#fff"/><circle cx="852" cy="314" r="7.5" fill="#fff"/><circle cx="879" cy="314" r="7.5" fill="#fff"/><circle cx="906" cy="314" r="7.5" fill="#fff"/><circle cx="933" cy="314" r="7.5" fill="#fff"/><circle cx="960" cy="314" r="7.5" fill="#fff"/><circle cx="987" cy="314" r="7.5" fill="#fff"/><circle cx="1014" cy="314" r="7.5" fill="#fff"/><circle cx="1041" cy="314" r="7.5" fill="#fff"/><circle cx="1068" cy="314" r="7.5" fill="#fff"/><circle cx="1095" cy="314" r="7.5" fill="#fff"/><circle cx="1122" cy="314" r="7.5" fill="#fff"/><circle cx="690" cy="341" r="7.5" fill="#fff"/><circle cx="717" cy="341" r="7.5" fill="#fff"/><circle cx="744" cy="341" r="7.5" fill="#fff"/><circle cx="771" cy="341" r="7.5" fill="#fff"/><circle cx="798" cy="341" r="7.5" fill="#fff"/><circle cx="825" cy="341" r="7.5" fill="#fff"/><circle cx="852" cy="341" r="7.5" fill="#fff"/><circle cx="879" cy="341" r="7.5" fill="#fff"/><circle cx="906" cy="341" r="7.5" fill="#fff"/><circle cx="933" cy="341" r="7.5" fill="#fff"/><circle cx="960" cy="341" r="7.5" fill="#fff"/><circle cx="987" cy="341" r="7.5" fill="#fff"/><circle cx="1014" cy="341" r="7.5" fill="#fff"/><circle cx="1041" cy="341" r="7.5" fill="#fff"/><circle cx="1068" cy="341" r="7.5" fill="#fff"/><circle cx="1095" cy="341" r="7.5" fill="#fff"/><circle cx="1122" cy="341" r="7.5" fill="#fff"/><circle cx="690" cy="368" r="7.5" fill="#fff"/><circle cx="717" cy="368" r="7.5" fill="#fff"/><circle cx="744" cy="368" r="7.5" fill="#fff"/><circle cx="771" cy="368" r="7.5" fill="#fff"/><circle cx="798" cy="368" r="7.5" fill="#fff"/><circle cx="825" cy="368" r="7.5" fill="#fff"/><circle cx="852" cy="368" r="7.5" fill="#fff"/><circle cx="879" cy="368" r="7.5" fill="#fff"/><circle cx="906" cy="368" r="7.5" fill="#fff"/><circle cx="933" cy="368" r="7.5" fill="#fff"/><circle cx="960" cy="368" r="7.5" fill="#fff"/><circle cx="987" cy="368" r="7.5" fill="#fff"/><circle cx="1014" cy="368" r="7.5" fill="#fff"/><circle cx="1041" cy="368" r="7.5" fill="#fff"/><circle cx="1068" cy="368" r="7.5" fill="#fff"/><circle cx="1095" cy="368" r="7.5" fill="#fff"/><circle cx="1122" cy="368" r="7.5" fill="#fff"/><circle cx="690" cy="395" r="7.5" fill="#fff"/><circle cx="717" cy="395" r="7.5" fill="#fff"/><circle cx="744" cy="395" r="7.5" fill="#fff"/><circle cx="771" cy="395" r="7.5" fill="#fff"/><circle cx="798" cy="395" r="7.5" fill="#fff"/><circle cx="825" cy="395" r="7.5" fill="#fff"/><circle cx="852" cy="395" r="7.5" fill="#fff"/><circle cx="879" cy="395" r="7.5" fill="#fff"/><circle cx="906" cy="395" r="7.5" fill="#fff"/><circle cx="933" cy="395" r="7.5" fill="#fff"/><circle cx="960" cy="395" r="7.5" fill="#fff"/><circle cx="987" cy="395" r="7.5" fill="#fff"/><circle cx="1014" cy="395" r="7.5" fill="#fff"/><circle cx="1041" cy="395" r="7.5" fill="#fff"/><circle cx="1068" cy="395" r="7.5" fill="#fff"/><circle cx="1095" cy="395" r="7.5" fill="#fff"/><circle cx="1122" cy="395" r="7.5" fill="#fff"/><circle cx="690" cy="422" r="7.5" fill="#fff"/><circle cx="717" cy="422" r="7.5" fill="#fff"/><circle cx="744" cy="422" r="7.5" fill="#fff"/><circle cx="771" cy="422" r="7.5" fill="#fff"/><circle cx="798" cy="422" r="7.5" fill="#fff"/><circle cx="825" cy="422" r="7.5" fill="#fff"/><circle cx="852" cy="422" r="7.5" fill="#fff"/><circle cx="879" cy="422" r="7.5" fill="#fff"/><circle cx="906" cy="422" r="7.5" fill="#fff"/><circle cx="933" cy="422" r="7.5" fill="#fff"/><circle cx="960" cy="422" r="7.5" fill="#fff"/><circle cx="987" cy="422" r="7.5" fill="#fff"/><circle cx="1014" cy="422" r="7.5" fill="#fff"/><circle cx="1041" cy="422" r="7.5" fill="#fff"/><circle cx="1068" cy="422" r="7.5" fill="#fff"/><circle cx="1095" cy="422" r="7.5" fill="#fff"/><circle cx="1122" cy="422" r="7.5" fill="#fff"/><circle cx="690" cy="449" r="7.5" fill="#fff"/><circle cx="717" cy="449" r="7.5" fill="#fff"/><circle cx="744" cy="449" r="7.5" fill="#fff"/><circle cx="771" cy="449" r="7.5" fill="#fff"/><circle cx="798" cy="449" r="7.5" fill="#fff"/><circle cx="825" cy="449" r="7.5" fill="#fff"/><circle cx="852" cy="449" r="7.5" fill="#fff"/><circle cx="879" cy="449" r="7.5" fill="#fff"/><circle cx="906" cy="449" r="7.5" fill="#fff"/><circle cx="933" cy="449" r="7.5" fill="#fff"/><circle cx="960" cy="449" r="7.5" fill="#fff"/><circle cx="987" cy="449" r="7.5" fill="#fff"/><circle cx="1014" cy="449" r="7.5" fill="#fff"/><circle cx="1041" cy="449" r="7.5" fill="#fff"/><circle cx="1068" cy="449" r="7.5" fill="#fff"/><circle cx="1095" cy="449" r="7.5" fill="#fff"/><circle cx="1122" cy="449" r="7.5" fill="#fff"/><circle cx="690" cy="476" r="7.5" fill="#fff"/><circle cx="717" cy="476" r="7.5" fill="#fff"/><circle cx="744" cy="476" r="7.5" fill="#fff"/><circle cx="771" cy="476" r="7.5" fill="#fff"/><circle cx="798" cy="476" r="7.5" fill="#fff"/><circle cx="825" cy="476" r="7.5" fill="#fff"/><circle cx="852" cy="476" r="7.5" fill="#fff"/><circle cx="879" cy="476" r="7.5" fill="#fff"/><circle cx="906" cy="476" r="7.5" fill="#fff"/><circle cx="933" cy="476" r="7.5" fill="#fff"/><circle cx="960" cy="476" r="7.5" fill="#fff"/><circle cx="987" cy="476" r="7.5" fill="#fff"/><circle cx="1014" cy="476" r="7.5" fill="#fff"/><circle cx="1041" cy="476" r="7.5" fill="#fff"/><circle cx="1068" cy="476" r="7.5" fill="#fff"/><circle cx="1095" cy="476" r="7.5" fill="#fff"/><circle cx="1122" cy="476" r="7.5" fill="#fff"/></mask></defs><rect x="660" y="10" width="500" height="500" fill="url(#field)" mask="url(#dots)"/>
<defs>
  <linearGradient id="pitch" x1="0.15" y1="0" x2="0.85" y2="1">
    <stop offset="0" stop-color="#5BE37D"/><stop offset="0.55" stop-color="#1FB85F"/><stop offset="1" stop-color="#078A63"/>
  </linearGradient>
  <linearGradient id="frost" x1="0.2" y1="0" x2="0.8" y2="1">
    <stop offset="0" stop-color="#FFFFFF" stop-opacity="0.98"/><stop offset="1" stop-color="#FFFFFF" stop-opacity="0.78"/>
  </linearGradient>
  <linearGradient id="spec" x1="0" y1="0" x2="1" y2="1">
    <stop offset="0" stop-color="#fff" stop-opacity="1"/><stop offset="0.45" stop-color="#fff" stop-opacity="0.2"/>
    <stop offset="1" stop-color="#fff" stop-opacity="0.7"/>
  </linearGradient>
  <linearGradient id="tileEdge" x1="0" y1="0" x2="1" y2="1">
    <stop offset="0" stop-color="#fff" stop-opacity="0.6"/><stop offset="0.4" stop-color="#fff" stop-opacity="0.08"/>
    <stop offset="1" stop-color="#fff" stop-opacity="0.25"/>
  </linearGradient>
  <clipPath id="tile"><rect x="860" y="180" width="160" height="160" rx="36.1"/></clipPath>
  <clipPath id="ball"><circle cx="940.0" cy="260.0" r="48.0"/></clipPath>
  <filter id="depth" x="-40%" y="-40%" width="180%" height="190%"><feDropShadow dx="0" dy="6.4" stdDeviation="7.2" flood-color="#00331C" flood-opacity="0.45"/></filter>
  <filter id="iconLift" x="-30%" y="-30%" width="160%" height="170%"><feDropShadow dx="0" dy="14" stdDeviation="16" flood-color="#00331C" flood-opacity="0.3"/></filter>
</defs>
<rect x="860" y="180" width="160" height="160" rx="36.1" fill="url(#pitch)" filter="url(#iconLift)"/>
<g clip-path="url(#tile)" fill="none" stroke="#FFFFFF" stroke-opacity="0.16" stroke-width="2.2">
  <line x1="940.0" y1="180" x2="940.0" y2="340"/>
  <circle cx="940.0" cy="260.0" r="67.2"/>
</g>
<rect x="860.75" y="180.75" width="158.5" height="158.5" rx="35.4" fill="none" stroke="url(#tileEdge)" stroke-width="1.5"/>
<circle cx="940.0" cy="260.0" r="48.0" fill="url(#frost)" filter="url(#depth)"/>
<g clip-path="url(#ball)">
  <g fill="#0A8F4E" fill-opacity="0.9" stroke="#0A8F4E" stroke-opacity="0.9" stroke-width="1.9"><polygon points="940.00,244.64 954.61,255.25 949.03,272.43 930.97,272.43 925.39,255.25" stroke-linejoin="round"/><polygon points="940.00,229.28 923.57,217.34 929.84,198.02 950.16,198.02 956.43,217.34" stroke-linejoin="round"/><polygon points="969.22,250.51 975.49,231.19 995.81,231.19 1002.08,250.51 985.65,262.45" stroke-linejoin="round"/><polygon points="958.06,284.85 978.37,284.85 984.65,304.17 968.21,316.11 951.78,304.17" stroke-linejoin="round"/><polygon points="921.94,284.85 928.22,304.17 911.79,316.11 895.35,304.17 901.63,284.85" stroke-linejoin="round"/><polygon points="910.78,250.51 894.35,262.45 877.92,250.51 884.19,231.19 904.51,231.19" stroke-linejoin="round"/></g>
  <g stroke="#0A8F4E" stroke-opacity="0.75" stroke-width="2.6" stroke-linecap="round"><line x1="940.00" y1="244.64" x2="940.00" y2="229.28"/><line x1="954.61" y1="255.25" x2="969.22" y2="250.51"/><line x1="949.03" y1="272.43" x2="958.06" y2="284.85"/><line x1="930.97" y1="272.43" x2="921.94" y2="284.85"/><line x1="925.39" y1="255.25" x2="910.78" y2="250.51"/></g>
</g>
<circle cx="940.0" cy="260.0" r="47.2" fill="none" stroke="url(#spec)" stroke-width="1.6"/>
<text x="56" y="92" font-size="15" font-weight="600" letter-spacing="1.8" text-anchor="start" fill="#8E8E93">MACHINE LEARNING  ·  SPORTS ANALYTICS</text><text x="56" y="158" font-size="54" font-weight="700" letter-spacing="-1.8" fill="#F5F5F7"><tspan x="56" dy="0">FIFA World Cup 2026</tspan><tspan x="56" dy="60">Predictor.</tspan></text><text x="56" y="268" font-size="21" font-weight="400" letter-spacing="0.0" fill="#A1A1A6"><tspan x="56" dy="0">A Gradient Boosting match model, simulated across the</tspan><tspan x="56" dy="31">entire tournament with Monte Carlo, plus Golden Boot,</tspan><tspan x="56" dy="31">Glove and Ball predictions.</tspan></text><text x="56" y="420" font-size="30" font-weight="700" letter-spacing="-0.6" text-anchor="start" fill="#F5F5F7">25,000+</text><text x="56" y="448" font-size="16" font-weight="500" letter-spacing="0.0" text-anchor="start" fill="#8E8E93">Fixtures trained on</text><text x="237.91999999999996" y="420" font-size="30" font-weight="700" letter-spacing="-0.6" text-anchor="start" fill="#F5F5F7">Monte Carlo</text><text x="237.91999999999996" y="448" font-size="16" font-weight="500" letter-spacing="0.0" text-anchor="start" fill="#8E8E93">Full-tournament sim</text><text x="456.18399999999997" y="420" font-size="30" font-weight="700" letter-spacing="-0.6" text-anchor="start" fill="#F5F5F7">3</text><text x="456.18399999999997" y="448" font-size="16" font-weight="500" letter-spacing="0.0" text-anchor="start" fill="#8E8E93">Award predictions</text><text x="56" y="486" font-size="19" font-weight="600" letter-spacing="0.0" text-anchor="start" fill="#2997FF">View on GitHub  ›</text>
</svg>
